<svg height="1646" width="720" xmlns="http://www.w3.org/2000/svg">
<rect height="1646" fill="#555" width="720"></rect>
<text fill="#7f7" font-family="Courier New" font-size="12" xml:space="preserve">
<tspan x="10" y="26">17 megabytes installed</tspan>
<tspan x="10" y="42"></tspan>
<tspan x="10" y="58">node_modules</tspan>
<tspan x="10" y="74">└─┬ minecraft-protocol@1.1.3 </tspan>
<tspan x="10" y="90">  ├── buffer-equal@1.0.0 </tspan>
<tspan x="10" y="106">  ├─┬ debug@2.6.4 </tspan>
<tspan x="10" y="122">  │ └── ms@0.7.3 </tspan>
<tspan x="10" y="138">  ├── endian-toggle@0.0.0 </tspan>
<tspan x="10" y="154">  ├── lodash.get@4.4.2 </tspan>
<tspan x="10" y="170">  ├── lodash.merge@4.6.0 </tspan>
<tspan x="10" y="186">  ├── minecraft-data@2.14.0 </tspan>
<tspan x="10" y="202">  ├── prismarine-nbt@1.1.0 </tspan>
<tspan x="10" y="218">  ├─┬ protodef@1.5.1 </tspan>
<tspan x="10" y="234">  │ ├── lodash.reduce@4.6.0 </tspan>
<tspan x="10" y="250">  │ └─┬ protodef-validator@1.1.7 </tspan>
<tspan x="10" y="266">  │   └─┬ ajv@4.11.7 </tspan>
<tspan x="10" y="282">  │     ├── co@4.6.0 </tspan>
<tspan x="10" y="298">  │     └─┬ json-stable-stringify@1.0.1 </tspan>
<tspan x="10" y="314">  │       └── jsonify@0.0.0 </tspan>
<tspan x="10" y="330">  ├─┬ readable-stream@2.2.9 </tspan>
<tspan x="10" y="346">  │ ├── buffer-shims@1.0.0 </tspan>
<tspan x="10" y="362">  │ ├── core-util-is@1.0.2 </tspan>
<tspan x="10" y="378">  │ ├── inherits@2.0.3 </tspan>
<tspan x="10" y="394">  │ ├── isarray@1.0.0 </tspan>
<tspan x="10" y="410">  │ ├── process-nextick-args@1.0.7 </tspan>
<tspan x="10" y="426">  │ ├── string_decoder@1.0.0 </tspan>
<tspan x="10" y="442">  │ └── util-deprecate@1.0.2 </tspan>
<tspan x="10" y="458">  ├─┬ ursa@0.9.4 </tspan>
<tspan x="10" y="474">  │ ├── bindings@1.2.1 </tspan>
<tspan x="10" y="490">  │ └── nan@2.6.2 </tspan>
<tspan x="10" y="506">  ├─┬ ursa-purejs@0.0.3 </tspan>
<tspan x="10" y="522">  │ └─┬ node-rsa@0.2.30 </tspan>
<tspan x="10" y="538">  │   ├── asn1@0.2.3 </tspan>
<tspan x="10" y="554">  │   └── lodash@3.3.0 </tspan>
<tspan x="10" y="570">  ├─┬ uuid-1345@0.99.6 </tspan>
<tspan x="10" y="586">  │ └── macaddress@0.2.8 </tspan>
<tspan x="10" y="602">  └─┬ yggdrasil@0.2.0 </tspan>
<tspan x="10" y="618">    ├─┬ request@2.78.0 </tspan>
<tspan x="10" y="634">    │ ├── aws-sign2@0.6.0 </tspan>
<tspan x="10" y="650">    │ ├── aws4@1.6.0 </tspan>
<tspan x="10" y="666">    │ ├── caseless@0.11.0 </tspan>
<tspan x="10" y="682">    │ ├─┬ combined-stream@1.0.5 </tspan>
<tspan x="10" y="698">    │ │ └── delayed-stream@1.0.0 </tspan>
<tspan x="10" y="714">    │ ├── extend@3.0.0 </tspan>
<tspan x="10" y="730">    │ ├── forever-agent@0.6.1 </tspan>
<tspan x="10" y="746">    │ ├─┬ form-data@2.1.4 </tspan>
<tspan x="10" y="762">    │ │ └── asynckit@0.4.0 </tspan>
<tspan x="10" y="778">    │ ├─┬ har-validator@2.0.6 </tspan>
<tspan x="10" y="794">    │ │ ├─┬ chalk@1.1.3 </tspan>
<tspan x="10" y="810">    │ │ │ ├── ansi-styles@2.2.1 </tspan>
<tspan x="10" y="826">    │ │ │ ├── escape-string-regexp@1.0.5 </tspan>
<tspan x="10" y="842">    │ │ │ ├─┬ has-ansi@2.0.0 </tspan>
<tspan x="10" y="858">    │ │ │ │ └── ansi-regex@2.1.1 </tspan>
<tspan x="10" y="874">    │ │ │ ├── strip-ansi@3.0.1 </tspan>
<tspan x="10" y="890">    │ │ │ └── supports-color@2.0.0 </tspan>
<tspan x="10" y="906">    │ │ ├─┬ commander@2.9.0 </tspan>
<tspan x="10" y="922">    │ │ │ └── graceful-readlink@1.0.1 </tspan>
<tspan x="10" y="938">    │ │ ├─┬ is-my-json-valid@2.16.0 </tspan>
<tspan x="10" y="954">    │ │ │ ├── generate-function@2.0.0 </tspan>
<tspan x="10" y="970">    │ │ │ ├─┬ generate-object-property@1.2.0 </tspan>
<tspan x="10" y="986">    │ │ │ │ └── is-property@1.0.2 </tspan>
<tspan x="10" y="1002">    │ │ │ ├── jsonpointer@4.0.1 </tspan>
<tspan x="10" y="1018">    │ │ │ └── xtend@4.0.1 </tspan>
<tspan x="10" y="1034">    │ │ └─┬ pinkie-promise@2.0.1 </tspan>
<tspan x="10" y="1050">    │ │   └── pinkie@2.0.4 </tspan>
<tspan x="10" y="1066">    │ ├─┬ hawk@3.1.3 </tspan>
<tspan x="10" y="1082">    │ │ ├── boom@2.10.1 </tspan>
<tspan x="10" y="1098">    │ │ ├── cryptiles@2.0.5 </tspan>
<tspan x="10" y="1114">    │ │ ├── hoek@2.16.3 </tspan>
<tspan x="10" y="1130">    │ │ └── sntp@1.0.9 </tspan>
<tspan x="10" y="1146">    │ ├─┬ http-signature@1.1.1 </tspan>
<tspan x="10" y="1162">    │ │ ├── assert-plus@0.2.0 </tspan>
<tspan x="10" y="1178">    │ │ ├─┬ jsprim@1.4.0 </tspan>
<tspan x="10" y="1194">    │ │ │ ├── assert-plus@1.0.0 </tspan>
<tspan x="10" y="1210">    │ │ │ ├── extsprintf@1.0.2 </tspan>
<tspan x="10" y="1226">    │ │ │ ├── json-schema@0.2.3 </tspan>
<tspan x="10" y="1242">    │ │ │ └── verror@1.3.6 </tspan>
<tspan x="10" y="1258">    │ │ └─┬ sshpk@1.13.0 </tspan>
<tspan x="10" y="1274">    │ │   ├── assert-plus@1.0.0 </tspan>
<tspan x="10" y="1290">    │ │   ├── bcrypt-pbkdf@1.0.1 </tspan>
<tspan x="10" y="1306">    │ │   ├─┬ dashdash@1.14.1 </tspan>
<tspan x="10" y="1322">    │ │   │ └── assert-plus@1.0.0 </tspan>
<tspan x="10" y="1338">    │ │   ├── ecc-jsbn@0.1.1 </tspan>
<tspan x="10" y="1354">    │ │   ├─┬ getpass@0.1.7 </tspan>
<tspan x="10" y="1370">    │ │   │ └── assert-plus@1.0.0 </tspan>
<tspan x="10" y="1386">    │ │   ├── jodid25519@1.0.2 </tspan>
<tspan x="10" y="1402">    │ │   ├── jsbn@0.1.1 </tspan>
<tspan x="10" y="1418">    │ │   └── tweetnacl@0.14.5 </tspan>
<tspan x="10" y="1434">    │ ├── is-typedarray@1.0.0 </tspan>
<tspan x="10" y="1450">    │ ├── isstream@0.1.2 </tspan>
<tspan x="10" y="1466">    │ ├── json-stringify-safe@5.0.1 </tspan>
<tspan x="10" y="1482">    │ ├─┬ mime-types@2.1.15 </tspan>
<tspan x="10" y="1498">    │ │ └── mime-db@1.27.0 </tspan>
<tspan x="10" y="1514">    │ ├── node-uuid@1.4.8 </tspan>
<tspan x="10" y="1530">    │ ├── oauth-sign@0.8.2 </tspan>
<tspan x="10" y="1546">    │ ├── qs@6.3.2 </tspan>
<tspan x="10" y="1562">    │ ├── stringstream@0.0.5 </tspan>
<tspan x="10" y="1578">    │ ├─┬ tough-cookie@2.3.2 </tspan>
<tspan x="10" y="1594">    │ │ └── punycode@1.4.1 </tspan>
<tspan x="10" y="1610">    │ └── tunnel-agent@0.4.3 </tspan>
<tspan x="10" y="1626">    └── uuid@2.0.3</tspan>
</text>
</svg>
